<svg viewBox="815 489.52 380 133.96" width="5000" height="1762.6315789473683" xmlns="http://www.w3.org/2000/svg" xmlns:xlink="http://www.w3.org/1999/xlink" preserveAspectRatio="none"><defs></defs><style>.aD6z1nYkhcolor {fill:#270949;fill-opacity:1;}.aD6z1nYkhstrokeColor-str {stroke:#FEB7C7;stroke-opacity:1;}.aIptOCySncolors-0 {fill:#4654A3;fill-opacity:1;}.aIptOCySncolors-1 {fill:#F95B3D;fill-opacity:1;}.aIptOCySncolors-2 {fill:#FEB7C7;fill-opacity:1;}.aIptOCySncolors-3 {fill:#270949;fill-opacity:1;}.aIptOCySncolors-4 {fill:#6B7ACC;fill-opacity:1;}.aIptOCySncolors-5 {fill:#987FC6;fill-opacity:1;}.aIptOCySncolors-6 {fill:#BFA0E9;fill-opacity:1;}.aIptOCySncolors-7 {fill:#BDBBF1;fill-opacity:1;}.atBXipXk0bfillColor {fill:#E6E9F5;fill-opacity:1;}.atBXipXk0bstrokeColor-str {stroke:#4654A3;stroke-opacity:1;}</style><g opacity="1" transform="rotate(0 815 500.0958)">
<svg width="112.8084" height="112.8084" x="815" y="500.0958" version="1.1" preserveAspectRatio="none" viewBox="0.8240000009536743 0.8230000138282776 3.3530001640319824 3.3530001640319824">
  <g transform="matrix(1 0 0 1 0 0)" class="aIptOCySncolors-0"><g><path d="M3.726,1.855C3.44,2.127,3.042,2.237,2.661,2.292c-0.34,0.05-0.695,0.071-0.999,0.203C1.344,2.634,1.144,2.864,1.16,3.22   c0.01,0.214,0.125,0.423,0.287,0.584C1.492,3.84,1.538,3.874,1.586,3.905C1.583,3.899,1.58,3.892,1.575,3.886   C1.382,3.621,1.232,2.862,2.242,2.697C2.445,2.664,2.648,2.63,2.85,2.584c0.178-0.041,0.496-0.141,0.531-0.16   c0.029-0.017-0.189,0.228-0.857,0.42C1.463,3.149,1.789,4.03,2.113,4.131C2.237,4.161,2.367,4.176,2.5,4.176   c0.926,0,1.677-0.75,1.677-1.676c0-0.333-0.097-0.643-0.264-0.903C3.868,1.695,3.805,1.779,3.726,1.855z"></path><path d="M0.824,2.5c0,0.184,0.03,0.359,0.084,0.525c0.02-0.182,0.082-0.354,0.198-0.5c0.21-0.267,0.536-0.392,0.875-0.459   C2.319,2,2.679,1.992,3.026,1.908c0.192-0.046,0.387-0.121,0.542-0.244C3.697,1.56,3.757,1.402,3.623,1.255   C3.574,1.211,3.522,1.169,3.468,1.131c0.098,0.201,0.022,0.5-0.773,0.578C2.491,1.73,2.288,1.749,2.087,1.777   C2.028,1.785,1.955,1.796,1.88,1.809c0,0,0.066-0.082,0.532-0.188c0.958-0.216,0.779-0.633,0.495-0.748   c-0.13-0.032-0.267-0.05-0.407-0.05C1.574,0.824,0.824,1.574,0.824,2.5z"></path></g></g>
</svg>
</g><g opacity="1" transform="rotate(0 972.9317 500.0958)">
<svg width="222.0683" height="84.6063" x="972.9317" y="500.0958" version="1.1" preserveAspectRatio="none" viewBox="1.72 -28.88 187.52 71.44">
  <g transform="matrix(1 0 0 1 0 0)" class="aD6z1nYkhcolor"><path id="id-D6z1nYkh10" d="M13.20-11.44L11.08-11.44L11.08-4.48Q11.08-2.88 11.42-2.14Q11.76-1.40 12.62-1.16Q13.48-0.92 15.36-0.88L15.36-0.88L15.36 0Q10.44-0.12 8.04-0.12L8.04-0.12Q6.04-0.12 3.00-0.04L3.00-0.04L1.72 0L1.72-0.80Q3.04-0.88 3.66-1.12Q4.28-1.36 4.50-2.04Q4.72-2.72 4.72-4.24L4.72-4.24L4.72-24.08Q4.72-25.60 4.50-26.28Q4.28-26.96 3.66-27.20Q3.04-27.44 1.72-27.52L1.72-27.52L1.72-28.32Q3.76-28.20 7.80-28.20L7.80-28.20L12.24-28.24Q13.04-28.28 14.08-28.28L14.08-28.28Q19.48-28.28 22.32-26.14Q25.16-24 25.16-20.40L25.16-20.40Q25.16-18.20 24.04-16.18Q22.92-14.16 20.26-12.80Q17.60-11.44 13.20-11.44L13.20-11.44ZM13.56-27.52Q12.48-27.52 11.98-27.24Q11.48-26.96 11.28-26.24Q11.08-25.52 11.08-24.08L11.08-24.08L11.08-12.24L12.80-12.24Q16.04-12.24 17.28-14.32Q18.52-16.40 18.52-19.96L18.52-19.96Q18.52-23.84 17.38-25.68Q16.24-27.52 13.56-27.52L13.56-27.52Z M61.56-27.52Q60.20-27.44 59.60-27.20Q59-26.96 58.78-26.28Q58.56-25.60 58.56-24.08L58.56-24.08L58.56-4.24Q58.56-2.72 58.78-2.04Q59-1.36 59.62-1.12Q60.24-0.88 61.56-0.80L61.56-0.80L61.56 0Q59.36-0.12 55.28-0.12L55.28-0.12Q51-0.12 48.96 0L48.96 0L48.96-0.80Q50.40-0.88 51.06-1.12Q51.72-1.36 51.96-2.04Q52.20-2.72 52.20-4.24L52.20-4.24L52.20-25.16L42.56 0.04L41.92 0.04L31.12-25.72L31.12-6.56Q31.12-4.20 31.36-3.10Q31.60-2 32.40-1.50Q33.20-1 35-0.80L35-0.80L35 0Q33.44-0.12 30.68-0.12L30.68-0.12Q28.48-0.12 27.20 0L27.20 0L27.20-0.80Q28.52-1 29.14-1.48Q29.76-1.96 29.98-3Q30.20-4.04 30.20-6.08L30.20-6.08L30.20-24.08Q30.20-25.60 29.98-26.28Q29.76-26.96 29.14-27.20Q28.52-27.44 27.20-27.52L27.20-27.52L27.20-28.32Q28.48-28.20 30.68-28.20L30.68-28.20Q34.36-28.20 37-28.32L37-28.32L45.08-8.84L52.44-28.20L55.28-28.20Q59.36-28.20 61.56-28.32L61.56-28.32L61.56-27.52Z M78.44-28.88Q80.84-28.88 82.52-28.20Q84.20-27.52 85.80-26.28L85.80-26.28Q86.24-25.92 86.56-25.92L86.56-25.92Q87.36-25.92 87.60-28.32L87.60-28.32L88.52-28.32Q88.36-25.60 88.36-18.64L88.36-18.64L87.44-18.64Q87.08-21.60 86.48-23.16Q85.88-24.72 84.44-25.88L84.44-25.88Q83.44-26.84 82.12-27.34Q80.80-27.84 79.36-27.84L79.36-27.84Q75.32-27.84 73.36-23.90Q71.40-19.96 71.40-14.08L71.40-14.08Q71.40-8.24 73.44-4.32Q75.48-0.40 79.52-0.40L79.52-0.40Q80.88-0.40 82.22-0.90Q83.56-1.40 84.48-2.36L84.48-2.36Q85.96-3.48 86.54-5.16Q87.12-6.84 87.44-10.08L87.44-10.08L88.36-10.08Q88.36-2.84 88.52 0L88.52 0L87.60 0Q87.48-1.28 87.26-1.82Q87.04-2.36 86.64-2.36L86.64-2.36Q86.32-2.36 85.80-2.04L85.80-2.04Q84-0.76 82.36-0.10Q80.72 0.56 78.40 0.56L78.40 0.56Q74.16 0.56 70.98-1.16Q67.80-2.88 66.04-6.14Q64.28-9.40 64.28-13.92L64.28-13.92Q64.28-18.32 66.08-21.72Q67.88-25.12 71.10-27Q74.32-28.88 78.44-28.88L78.44-28.88Z M16.20 13.12Q18.68 13.12 20.38 13.80Q22.08 14.48 23.72 15.72L23.72 15.72Q24.20 16.08 24.52 16.08L24.52 16.08Q24.92 16.08 25.16 15.50Q25.40 14.92 25.52 13.68L25.52 13.68L26.44 13.68Q26.28 16.40 26.28 23.36L26.28 23.36L25.36 23.36Q25.04 20.64 24.42 18.96Q23.80 17.28 22.36 16.12L22.36 16.12Q21.40 15.20 20 14.68Q18.60 14.16 17.12 14.16L17.12 14.16Q14.32 14.16 12.46 16.06Q10.60 17.96 9.72 21.08Q8.84 24.20 8.84 27.92L8.84 27.92Q8.84 41.76 16.52 41.76L16.52 41.76Q18.28 41.76 19.36 40.96L19.36 40.96Q19.88 40.60 20.10 40.12Q20.32 39.64 20.32 38.88L20.32 38.88L20.32 34.96Q20.32 33.08 20 32.22Q19.68 31.36 18.86 31.04Q18.04 30.72 16.28 30.64L16.28 30.64L16.28 29.84Q18.76 29.96 23.12 29.96L23.12 29.96Q26.68 29.96 28.48 29.84L28.48 29.84L28.48 30.64Q27.68 30.72 27.32 30.96Q26.96 31.20 26.82 31.88Q26.68 32.56 26.68 34.08L26.68 34.08L26.68 42L25.88 42Q25.84 41.16 25.54 40.44Q25.24 39.72 24.72 39.72L24.72 39.72Q24.04 39.72 22.56 40.56L22.56 40.56Q19.08 42.56 16 42.56L16 42.56Q9.08 42.56 5.40 38.78Q1.72 35 1.72 28.16L1.72 28.16Q1.72 23.68 3.58 20.28Q5.44 16.88 8.72 15Q12 13.12 16.20 13.12L16.20 13.12Z M53.56 38.64Q54.08 39.96 54.76 40.56Q55.44 41.16 56.08 41.20L56.08 41.20L56.08 42Q53.68 41.88 50 41.88L50 41.88Q45.92 41.88 43.92 42L43.92 42L43.92 41.20Q45.44 41.12 46.08 40.82Q46.72 40.52 46.72 39.76L46.72 39.76Q46.72 39.04 46.24 37.84L46.24 37.84L43.84 31.28L35.12 31.28L34.08 34.04Q32.96 36.92 32.96 38.48L32.96 38.48Q32.96 39.96 33.86 40.54Q34.76 41.12 36.52 41.20L36.52 41.20L36.52 42Q33.80 41.88 31.56 41.88L31.56 41.88Q29.72 41.88 28.52 42L28.52 42L28.52 41.20Q30.48 40.84 31.96 37L31.96 37L41.08 13.60Q41.52 13.64 42.48 13.64L42.48 13.64Q43.44 13.64 43.84 13.60L43.84 13.60L53.56 38.64ZM35.44 30.48L43.56 30.48L39.60 19.68L35.44 30.48Z M68.72 13.68Q76.52 13.68 80.40 17.22Q84.28 20.76 84.28 27.52L84.28 27.52Q84.28 31.88 82.38 35.14Q80.48 38.40 76.90 40.20Q73.32 42 68.36 42L68.36 42L65.88 41.96Q63.56 41.88 62.52 41.88L62.52 41.88Q58.40 41.88 56.36 42L56.36 42L56.36 41.20Q57.68 41.12 58.30 40.88Q58.92 40.64 59.14 39.96Q59.36 39.28 59.36 37.76L59.36 37.76L59.36 17.92Q59.36 16.40 59.14 15.72Q58.92 15.04 58.30 14.80Q57.68 14.56 56.36 14.48L56.36 14.48L56.36 13.68Q58.04 13.80 61.20 13.80L61.20 13.80L62.44 13.80L64.04 13.76Q67.32 13.68 68.72 13.68L68.72 13.68ZM68.68 14.40Q67.44 14.40 66.82 14.68Q66.20 14.96 65.96 15.68Q65.72 16.40 65.72 17.84L65.72 17.84L65.72 37.84Q65.72 39.28 65.96 40Q66.20 40.72 66.82 41Q67.44 41.28 68.72 41.28L68.72 41.28Q73.56 41.28 75.60 37.90Q77.64 34.52 77.64 27.68L77.64 27.68Q77.64 20.84 75.54 17.62Q73.44 14.40 68.68 14.40L68.68 14.40Z M102.24 13.12Q104.72 13.12 106.42 13.80Q108.12 14.48 109.76 15.72L109.76 15.72Q110.24 16.08 110.56 16.08L110.56 16.08Q110.96 16.08 111.20 15.50Q111.44 14.92 111.56 13.68L111.56 13.68L112.48 13.68Q112.32 16.40 112.32 23.36L112.32 23.36L111.40 23.36Q111.08 20.64 110.46 18.96Q109.84 17.28 108.40 16.12L108.40 16.12Q107.44 15.20 106.04 14.68Q104.64 14.16 103.16 14.16L103.16 14.16Q100.36 14.16 98.50 16.06Q96.64 17.96 95.76 21.08Q94.88 24.20 94.88 27.92L94.88 27.92Q94.88 41.76 102.56 41.76L102.56 41.76Q104.32 41.76 105.40 40.96L105.40 40.96Q105.92 40.60 106.14 40.12Q106.36 39.64 106.36 38.88L106.36 38.88L106.36 34.96Q106.36 33.08 106.04 32.22Q105.72 31.36 104.90 31.04Q104.08 30.72 102.32 30.64L102.32 30.64L102.32 29.84Q104.80 29.96 109.16 29.96L109.16 29.96Q112.72 29.96 114.52 29.84L114.52 29.84L114.52 30.64Q113.72 30.72 113.36 30.96Q113 31.20 112.86 31.88Q112.72 32.56 112.72 34.08L112.72 34.08L112.72 42L111.92 42Q111.88 41.16 111.58 40.44Q111.28 39.72 110.76 39.72L110.76 39.72Q110.08 39.72 108.60 40.56L108.60 40.56Q105.12 42.56 102.04 42.56L102.04 42.56Q95.12 42.56 91.44 38.78Q87.76 35 87.76 28.16L87.76 28.16Q87.76 23.68 89.62 20.28Q91.48 16.88 94.76 15Q98.04 13.12 102.24 13.12L102.24 13.12Z M138.72 35.92Q138.72 39.60 139 42L139 42Q136.28 41.88 129.84 41.88L129.84 41.88Q121.12 41.88 116.80 42L116.80 42L116.80 41.20Q118.12 41.12 118.74 40.88Q119.36 40.64 119.58 39.96Q119.80 39.28 119.80 37.76L119.80 37.76L119.80 17.92Q119.80 16.40 119.58 15.72Q119.36 15.04 118.74 14.80Q118.12 14.56 116.80 14.48L116.80 14.48L116.80 13.68Q121.12 13.80 129.84 13.80L129.84 13.80Q135.72 13.80 138.20 13.68L138.20 13.68Q137.92 17 137.92 19.60L137.92 19.60Q137.92 21.36 138.04 22.32L138.04 22.32L137.12 22.32Q136.52 18.04 134.96 16.32Q133.40 14.60 130.56 14.60L130.56 14.60L128.92 14.60Q127.68 14.60 127.12 14.80Q126.56 15 126.36 15.58Q126.16 16.16 126.16 17.44L126.16 17.44L126.16 27.36L127.44 27.36Q129.56 27.36 130.66 25.80Q131.76 24.24 132.20 22.08L132.20 22.08L133.12 22.08Q133 23.76 133 25.84L133 25.84L133 27.76Q133 29.80 133.24 33.44L133.24 33.44L132.32 33.44Q131.48 28.16 127.44 28.16L127.44 28.16L126.16 28.16L126.16 38.24Q126.16 39.52 126.36 40.10Q126.56 40.68 127.12 40.88Q127.68 41.08 128.92 41.08L128.92 41.08L130.88 41.08Q133.72 41.08 135.46 39.14Q137.20 37.20 137.92 32.56L137.92 32.56L138.84 32.56Q138.72 33.88 138.72 35.92L138.72 35.92Z M166.48 13.68Q166.20 17.48 166.20 20.48L166.20 20.48Q166.20 22.36 166.32 23.52L166.32 23.52L165.40 23.52Q164.44 18.60 162.78 16.60Q161.12 14.60 158.24 14.60L158.24 14.60L157.32 14.60L157.32 37.44Q157.32 39.12 157.66 39.88Q158 40.64 158.86 40.90Q159.72 41.16 161.60 41.20L161.60 41.20L161.60 42Q156.56 41.88 154 41.88L154 41.88Q151.48 41.88 146.68 42L146.68 42L146.68 41.20Q148.56 41.16 149.42 40.90Q150.28 40.64 150.62 39.88Q150.96 39.12 150.96 37.44L150.96 37.44L150.96 14.60L150.08 14.60Q148.16 14.60 146.82 15.44Q145.48 16.28 144.52 18.22Q143.56 20.16 142.88 23.52L142.88 23.52L141.96 23.52Q142.08 22.36 142.08 20.48L142.08 20.48Q142.08 17.48 141.80 13.68L141.80 13.68Q145.44 13.80 154.16 13.80L154.16 13.80Q162.88 13.80 166.48 13.68L166.48 13.68Z M178.88 13.16Q180.96 13.16 182.20 13.56Q183.44 13.96 184.72 14.72L184.72 14.72Q185.16 14.96 185.50 15.12Q185.84 15.28 186.08 15.28L186.08 15.28Q186.44 15.28 186.64 14.86Q186.84 14.44 186.96 13.52L186.96 13.52L187.88 13.52Q187.68 16.20 187.68 22.64L187.68 22.64L186.76 22.64Q186.60 20.48 185.78 18.52Q184.96 16.56 183.46 15.34Q181.96 14.12 179.96 14.12L179.96 14.12Q178 14.12 176.78 15.22Q175.56 16.32 175.56 18.20L175.56 18.20Q175.56 19.60 176.16 20.64Q176.76 21.68 177.84 22.54Q178.92 23.40 181.16 24.88L181.16 24.88L182.44 25.76Q184.80 27.32 186.16 28.48Q187.52 29.64 188.38 31.18Q189.24 32.72 189.24 34.76L189.24 34.76Q189.24 37.32 187.92 39.06Q186.60 40.80 184.34 41.68Q182.08 42.56 179.32 42.56L179.32 42.56Q177.08 42.56 175.60 42.16Q174.12 41.76 172.88 41.08L172.88 41.08Q172 40.52 171.52 40.52L171.52 40.52Q171.16 40.52 170.96 40.94Q170.76 41.36 170.64 42.28L170.64 42.28L169.72 42.28Q169.88 39.76 169.88 31.48L169.88 31.48L170.80 31.48Q171.08 35.96 172.80 38.74Q174.52 41.52 178.08 41.52L178.08 41.52Q180.24 41.52 181.64 40.36Q183.04 39.20 183.04 37.04L183.04 37.04Q183.04 34.80 181.60 33.20Q180.16 31.60 177.04 29.60L177.04 29.60Q174.64 28.04 173.20 26.88Q171.76 25.72 170.84 24.14Q169.92 22.56 169.92 20.48L169.92 20.48Q169.92 18.08 171.14 16.42Q172.36 14.76 174.40 13.96Q176.44 13.16 178.88 13.16L178.88 13.16Z"/></g>
</svg>
</g><g opacity="1" transform="rotate(0 948.2549 489.52)">
<svg width="2.1151" height="133.96" x="948.2549" y="489.52" version="1.1" preserveAspectRatio="none" viewBox="0 0 2.1151 133.96">
  <rect x="0" y="0" width="2.1151" height="133.96" class="atBXipXk0bfillColor atBXipXk0bstrokeColor-str" style="stroke-width:0;" rx="0px" ry="0px" />
</svg>
</g></svg>